#!OML:ASF H:\Terrain\Patient Classification 1\Terrain2\Thursday\justin.ASF
:FULLY-SPECIFIED
:DEGREES
3584
root -2.13916 20.4289 -11.0207 1054.52 -268.408 -743.656
lowerback 9.63708 -0.384649 -3.89497
upperback 3.87788 -0.678381 2.14134
thorax -1.28975 -0.327744 4.49085
lowerneck -12.3005 -3.04396 -8.95918
upperneck 38.7999 -2.02762 4.89223
head 16.0615 -0.93127 3.56815
rclavicle 3.47873e-015 1.23246e-014
rhumerus -29.0412 -7.63805 -77.1552
rradius 35.0513
rwrist -12.0419
rhand -22.3833 12.526
rfingers 7.12502
rthumb 4.03862 -17.4155
lclavicle 3.47873e-015 1.23246e-014
lhumerus -32.5565 4.90261 81.9845
lradius 38.4955
lwrist 6.02912
lhand -18.1232 20.8038
lfingers 7.12502
lthumb 8.15145 -309.373
rfemur -42.7291 -9.65342 19.1248
rtibia 69.9718
rfoot -3.41722 -6.26112
rtoes 15.0277
lfemur 10.6775 -2.10806 -25.4567
ltibia 7.89705
lfoot -9.67705 -12.6148
ltoes 29.5172
3585
root -2.01579 20.4079 -11.0106 1048.74 -268.232 -749.297
lowerback 9.48775 -0.386302 -4.19731
upperback 3.91848 -0.704062 2.07573
thorax -1.15819 -0.347215 4.59397
lowerneck -12.1872 -3.10895 -9.01266
upperneck 38.8405 -2.15346 4.99793
head 16.0705 -0.976072 3.60586
rclavicle -3.67752e-015 1.11319e-014
rhumerus -29.2404 -7.85741 -77.0412
rradius 34.8956
rwrist -12.1116
rhand -22.8456 12.2988
rfingers 7.12502
rthumb 3.59222 -17.6507
lclavicle -3.67752e-015 1.11319e-014
lhumerus -32.6272 4.95274 81.9226
lradius 38.583
lwrist 5.64779
lhand -18.0429 20.9671
lfingers 7.12502
lthumb 8.22897 -309.213
rfemur -42.49 -9.38945 18.8495
rtibia 67.8765
rfoot -2.25395 -6.18971
rtoes 17.8951
lfemur 11.7763 -2.10428 -25.6553
ltibia 6.92268
lfoot -9.6697 -12.7409
ltoes 28.8401
3586
root -1.89498 20.3812 -11.013 1049.69 -268.071 -748.228
lowerback 9.38703 -0.466859 -4.21189
upperback 3.88761 -0.809182 2.13383
thorax -1.12202 -0.401311 4.67229
lowerneck -12.0209 -3.11474 -9.27221
upperneck 38.9382 -2.11744 5.08966
head 16.086 -0.983965 3.70477
rclavicle 7.95139e-016 -5.96354e-015
rhumerus -29.3884 -7.98293 -76.8013
rradius 34.5331
rwrist -12.2806
rhand -22.7463 12.1659
rfingers 7.12502
rthumb 3.68806 -17.7819
lclavicle 7.95139e-016 -5.96354e-015
lhumerus -32.8047 4.51066 82.2108
lradius 38.7296
lwrist 6.12496
lhand -18.3872 21.0446
lfingers 7.12502
lthumb 7.89666 -309.123
rfemur -42.2102 -9.35813 18.8683
rtibia 65.6912
rfoot -0.846567 -5.62901
rtoes 15.248
lfemur 12.9723 -2.1772 -25.7103
ltibia 5.75014
lfoot -9.386 -12.8171
ltoes 29.3942
3587
root -1.77632 20.3514 -11.0183 1052.82 -267.904 -744.98
lowerback 9.33995 -0.500909 -3.98752
upperback 3.87562 -0.834797 2.0927
thorax -1.11126 -0.412002 4.50325
lowerneck -11.9838 -3.11742 -9.05549
upperneck 39.0401 -2.12945 4.97807
head 16.1247 -0.96851 3.62024
rclavicle 4.47266e-015 1.70955e-014
rhumerus -29.596 -8.37751 -76.5427
rradius 34.1998
rwrist -12.5507
rhand -22.4822 12.2684
rfingers 7.12502
rthumb 3.94314 -17.6748
lclavicle 4.47266e-015 1.70955e-014
lhumerus -32.7942 3.77984 82.4626
lradius 38.8709
lwrist 6.86396
lhand -18.8089 20.9932
lfingers 7.12502
lthumb 7.48959 -309.159
rfemur -41.9144 -9.45042 19.0052
rtibia 63.4598
rfoot 0.527499 -4.75756
rtoes 9.81739
lfemur 14.1527 -2.29347 -25.7072
ltibia 4.59988
lfoot -9.07515 -12.9501
ltoes 30.4104
3588
root -1.64943 20.3266 -11.0165 1054.09 -267.835 -743.586
lowerback 9.18384 -0.56812 -3.94041
upperback 3.90523 -0.915881 2.04878
thorax -0.987901 -0.455633 4.43513
lowerneck -11.8704 -3.06837 -8.76156
upperneck 39.0456 -2.10066 4.85557
head 16.0866 -0.927907 3.51735
rclavicle 3.97569e-016 -1.59028e-015
rhumerus -29.8099 -8.78411 -76.3576
rradius 33.9444
rwrist -12.4946
rhand -23.1973 12.2338
rfingers 7.12502
rthumb 3.25252 -17.7211
lclavicle 3.97569e-016 -1.59028e-015
lhumerus -32.852 3.45162 82.4357
lradius 38.9191
lwrist 7.20076
lhand -19.0059 20.9619
lfingers 7.12502
lthumb 7.29944 -309.184
rfemur -41.5151 -9.28036 19.0368
rtibia 61.1984
rfoot 1.95941 -4.02634
rtoes 7.86148
lfemur 15.4138 -2.28997 -25.7113
ltibia 3.34653
lfoot -9.09182 -12.8943
ltoes 29.3682
3589
root -1.51513 20.298 -11.0086 1057.15 -267.939 -740.35
lowerback 9.00988 -0.63474 -3.88408
upperback 3.94288 -0.990099 2.19084
thorax -0.843469 -0.497215 4.55503
lowerneck -11.8187 -3.06379 -9.07439
upperneck 39.1156 -2.02776 4.92859
head 16.1134 -0.933729 3.62194
rclavicle -1.73937e-014 -1.15295e-014
rhumerus -29.9924 -8.91732 -76.0059
rradius 33.7194
rwrist -12.1745
rhand -23.8454 11.8738
rfingers 7.12502
rthumb 2.62665 -18.0897
lclavicle -1.73937e-014 -1.15295e-014
lhumerus -33.0063 3.76377 82.4177
lradius 38.8444
lwrist 6.83277
lhand -18.6869 20.8992
lfingers 7.12502
lthumb 7.60737 -309.258
rfemur -40.9715 -8.83955 19.1677
rtibia 58.9247
rfoot 3.63286 -3.38028
rtoes 7.15538
lfemur 17.8068 -2.15232 -25.5897
ltibia -4.92986e-014
lfoot -8.29484 -12.436
ltoes 27.1197
3590
root -1.38198 20.261 -10.9991 1053.07 -267.846 -744.295
lowerback 8.81555 -0.629587 -4.06946
upperback 4.03359 -0.989138 2.21534
thorax -0.637334 -0.505378 4.68125
lowerneck -11.9551 -3.15819 -9.32532
upperneck 39.2026 -2.06012 4.87533
head 16.2052 -0.992754 3.64347
rclavicle -1.88845e-015 -7.95139e-015
rhumerus -30.0448 -9.61526 -75.5453
rradius 33.3188
rwrist -11.4499
rhand -23.508 11.9575
rfingers 7.12502
rthumb 2.95249 -18.0019
lclavicle -1.88845e-015 -7.95139e-015
lhumerus -32.971 3.87914 82.461
lradius 38.8404
lwrist 6.40439
lhand -17.8153 20.6591
lfingers 7.12502
lthumb 8.44861 -309.53
rfemur -40.4904 -8.67409 18.9966
rtibia 56.7143
rfoot 5.44186 -2.70257
rtoes 5.58632
lfemur 18.4646 -2.08412 -25.7833
ltibia -3.18055e-014
lfoot -8.8177 -12.3662
ltoes 26.3663
3591
root -1.25091 20.2258 -10.9924 1044.7 -267.468 -752.662
lowerback 8.53931 -0.669946 -4.53936
upperback 4.08195 -1.07312 2.06845
thorax -0.416966 -0.560025 4.7958
lowerneck -12.0785 -3.20612 -9.33654
upperneck 39.3239 -2.09571 4.8365
head 16.3048 -1.01541 3.62938
rclavicle 4.57205e-015 -2.74323e-014
rhumerus -30.058 -10.4588 -75.248
rradius 32.7954
rwrist -10.8829
rhand -23.0734 12.2598
rfingers 7.12502
rthumb 3.37217 -17.6933
lclavicle 4.57205e-015 -2.74323e-014
lhumerus -32.9439 3.71709 82.5067
lradius 38.842
lwrist 6.36379
lhand -17.6552 20.3695
lfingers 7.12502
lthumb 8.60308 -309.826
rfemur -40.1397 -8.54912 18.4619
rtibia 54.5557
rfoot 7.10443 -2.04402
rtoes 3.6308
lfemur 18.9687 -2.14425 -26.3148
ltibia -6.36111e-015
lfoot -9.14783 -12.4919
ltoes 26.4199
3592
root -1.11981 20.1899 -10.9911 1044.06 -267.156 -753.219
lowerback 8.41275 -0.739651 -4.6002
upperback 4.06328 -1.16847 1.9965
thorax -0.355728 -0.610106 4.76036
lowerneck -12.0865 -3.19972 -9.52928
upperneck 39.4924 -2.09977 5.07554
head 16.4049 -1.01159 3.7815
rclavicle 2.83268e-014 -9.14409e-015
rhumerus -30.2816 -10.4218 -75.1128
rradius 32.4145
rwrist -11.1939
rhand -23.0981 12.2287
rfingers 7.12502
rthumb 3.34837 -17.7248
lclavicle 2.83268e-014 -9.14409e-015
lhumerus -33.024 3.56635 82.6452
lradius 38.8235
lwrist 6.46432
lhand -18.16 20.215
lfingers 7.12502
lthumb 8.11595 -309.961
rfemur -39.631 -8.54549 18.2606
rtibia 52.3879
rfoot 8.6493 -0.883058
rtoes 0.577802
lfemur 19.56 -2.2843 -26.5783
ltibia 5.725e-014
lfoot -9.63906 -12.5367
ltoes 25.2659
3593
root -0.988377 20.1462 -10.9904 1046.15 -266.812 -751.031
lowerback 8.31382 -0.770784 -4.44152
upperback 4.0277 -1.19781 1.90789
thorax -0.341672 -0.622278 4.57803
lowerneck -11.9473 -3.28187 -9.67035
upperneck 39.606 -2.2605 5.3028
head 16.4559 -1.06429 3.89016
rclavicle 2.98177e-016 3.18055e-015
rhumerus -30.7186 -10.4165 -74.9286
rradius 32.1805
rwrist -11.6501
rhand -23.0045 12.176
rfingers 7.12502
rthumb 3.43873 -17.776
lclavicle 2.98177e-016 3.18055e-015
lhumerus -33.0837 3.24121 82.7143
lradius 38.8515
lwrist 6.25901
lhand -17.7505 20.1854
lfingers 7.12502
lthumb 8.51116 -310.006
rfemur -39.081 -8.99343 18.2539
rtibia 50.22
rfoot 10.2654 0.462437
rtoes -2.03797
lfemur 20.1876 -2.53417 -26.7307
ltibia -5.40694e-014
lfoot -10.1377 -12.5295
ltoes 23.9363
3594
root -0.853045 20.1082 -10.982 1047.49 -266.636 -749.665
lowerback 8.10399 -0.788178 -4.48657
upperback 3.97648 -1.21972 1.93424
thorax -0.274889 -0.636426 4.62888
lowerneck -11.7798 -3.39101 -9.7074
upperneck 39.6939 -2.37993 5.21754
head 16.477 -1.12736 3.84341
rclavicle -1.49089e-014 1.55052e-014
rhumerus -31.1927 -10.8003 -74.5629
rradius 32.0214
rwrist -11.4551
rhand -22.7321 12.3327
rfingers 7.12502
rthumb 3.70177 -17.6149
lclavicle -1.49089e-014 1.55052e-014
lhumerus -33.2417 2.99311 82.7716
lradius 38.8953
lwrist 6.00943
lhand -17.4097 20.7203
lfingers 7.12502
lthumb 8.84001 -309.485
rfemur -38.5318 -8.95658 18.2907
rtibia 48.0516
rfoot 11.8582 1.14247
rtoes -3.29979
lfemur 20.7486 -2.65279 -26.7367
ltibia -4.45278e-014
lfoot -10.7393 -12.5489
ltoes 22.7096
